<?xml version="1.0" encoding="UTF-8" standalone="no"?>
<!DOCTYPE svg PUBLIC "-//W3C//DTD SVG 20010904//EN"
              "http://www.w3.org/TR/2001/REC-SVG-20010904/DTD/svg10.dtd">

<svg xmlns="http://www.w3.org/2000/svg"
     width="8.45833in" height="8.61111in"
     viewBox="0 0 609 620">
  <path id="Selection"
        fill="currentColor" stroke="currentColor" stroke-width="0"
        d="M 298.00,81.00
           C 294.60,62.00 300.01,37.34 311.90,22.01
             319.08,12.76 334.86,2.50 342.86,17.00
             346.29,23.22 346.08,34.95 346.00,42.00
             345.84,55.36 341.70,70.48 333.33,81.00
             324.51,92.08 312.92,92.41 314.32,110.00
             315.23,121.33 320.66,127.02 323.10,137.00
             327.88,156.56 320.13,177.19 304.00,189.24
             300.16,192.11 292.71,197.57 288.00,197.87
             284.82,198.08 281.06,196.99 281.58,193.02
             282.12,188.79 287.41,187.26 290.44,181.96
             297.71,169.29 285.98,157.37 276.00,159.41
             265.24,161.60 262.38,174.63 267.97,182.96
             271.13,187.68 274.77,188.18 275.67,192.09
             277.60,200.51 267.06,197.84 263.00,195.53
             252.73,189.71 242.21,179.84 237.31,169.00
             232.30,157.92 231.59,144.56 235.36,133.00
             238.90,122.16 243.76,120.40 242.91,108.00
             242.28,98.73 241.16,96.65 234.00,90.59
             230.10,87.30 225.68,84.08 222.61,80.00
             214.76,69.57 211.15,51.91 211.00,39.00
             210.87,27.36 210.85,8.97 227.00,10.10
             236.12,10.73 241.48,17.08 246.51,24.00
             257.43,39.01 260.10,55.00 260.00,73.00
             259.98,76.45 259.95,77.64 259.00,81.00
             259.00,81.00 269.00,77.90 269.00,77.90
             279.50,75.35 288.11,77.71 298.00,81.00 Z
           M 226.13,17.64
           C 221.88,20.35 222.06,23.29 222.00,28.00
             221.81,43.88 221.75,58.95 230.47,73.00
             233.23,77.45 240.80,86.65 246.89,84.38
             252.41,82.34 252.17,70.88 251.96,66.00
             251.39,52.78 248.46,37.81 240.51,27.00
             236.98,22.20 232.58,16.90 226.13,17.64 Z
           M 328.00,17.54
           C 321.63,19.22 318.29,23.71 314.75,29.00
             308.11,38.92 304.87,59.09 305.00,71.00
             305.06,76.31 305.64,85.26 313.00,84.73
             319.55,84.26 324.45,77.28 327.22,72.00
             334.85,57.43 335.07,45.84 335.00,30.00
             334.97,24.21 335.05,18.36 328.00,17.54 Z
           M 182.00,233.00
           C 184.46,225.49 192.20,200.65 191.68,194.00
             191.30,189.30 189.74,184.77 190.10,180.00
             191.23,164.85 212.59,163.91 214.79,178.00
             216.27,187.51 211.27,190.71 206.93,198.00
             204.54,202.01 203.36,206.53 202.15,211.00
             202.15,211.00 181.37,291.00 181.37,291.00
             181.37,291.00 175.29,314.00 175.29,314.00
             174.70,316.07 173.30,322.04 172.07,323.40
             170.42,325.22 159.91,325.76 157.00,326.00
             157.00,326.00 164.87,294.00 164.87,294.00
             164.98,290.72 163.36,284.64 162.75,281.00
             162.75,281.00 159.00,251.00 159.00,251.00
             158.90,242.00 159.08,238.71 166.04,232.06
             167.76,230.41 169.51,228.83 172.00,228.64
             175.38,228.39 179.39,231.15 182.00,233.00 Z
           M 248.00,192.00
           C 253.11,201.76 252.59,207.39 264.00,213.83
             282.14,224.06 306.05,213.46 308.00,192.00
             312.18,194.71 314.80,203.27 316.58,208.00
             320.21,217.66 320.02,224.57 322.24,234.00
             323.94,241.25 327.52,249.08 330.42,256.00
             330.42,256.00 351.31,303.00 351.31,303.00
             360.67,323.39 370.62,342.97 375.77,365.00
             377.84,373.89 379.99,386.95 380.00,396.00
             380.00,396.00 380.00,463.00 380.00,463.00
             380.01,467.51 379.95,469.54 381.16,474.00
             386.52,493.84 401.52,497.72 419.00,502.58
             458.10,513.45 499.28,516.34 537.00,532.43
             555.71,540.40 580.00,553.28 578.96,577.00
             578.15,595.43 559.67,598.72 545.00,600.07
             545.00,600.07 535.00,601.00 535.00,601.00
             535.00,601.00 516.00,602.00 516.00,602.00
             516.00,602.00 495.00,602.00 495.00,602.00
             495.00,602.00 480.00,601.00 480.00,601.00
             480.00,601.00 465.00,601.00 465.00,601.00
             465.00,601.00 450.00,602.00 450.00,602.00
             450.00,602.00 422.00,603.00 422.00,603.00
             422.00,603.00 407.00,604.00 407.00,604.00
             407.00,604.00 367.00,604.00 367.00,604.00
             361.85,604.00 351.38,604.74 347.00,603.00
             347.00,603.00 406.00,593.42 406.00,593.42
             406.00,593.42 497.00,580.73 497.00,580.73
             497.00,580.73 532.00,574.72 532.00,574.72
             534.61,574.17 542.71,572.46 543.66,569.83
             544.48,567.57 541.61,566.36 539.98,565.80
             535.91,564.41 529.33,564.01 525.00,564.00
             525.00,564.00 505.00,563.00 505.00,563.00
             505.00,563.00 486.00,564.00 486.00,564.00
             486.00,564.00 432.00,564.00 432.00,564.00
             432.00,564.00 412.00,562.16 412.00,562.16
             382.54,559.01 369.40,554.15 342.00,545.00
             344.53,553.69 355.86,566.29 349.26,575.90
             345.50,581.38 337.06,581.97 331.00,582.00
             331.00,582.00 262.00,582.00 262.00,582.00
             253.97,582.00 233.57,582.87 227.00,581.00
             227.00,581.00 227.00,579.00 227.00,579.00
             238.57,573.07 256.98,571.56 270.00,569.72
             270.00,569.72 308.00,562.00 308.00,562.00
             308.00,562.00 298.80,551.00 298.80,551.00
             292.79,543.56 284.55,531.52 280.27,523.00
             258.36,479.46 256.77,423.79 298.00,390.81
             308.56,382.36 322.35,376.30 336.00,376.00
             335.47,364.46 329.53,345.59 324.69,335.00
             322.57,330.36 314.97,317.14 315.74,313.00
             315.74,313.00 323.80,295.00 323.80,295.00
             325.09,291.74 328.03,284.33 327.68,281.02
             327.48,279.10 326.32,276.38 324.04,276.34
             322.39,276.31 321.70,277.72 321.31,279.07
             320.32,282.53 322.42,282.97 317.22,294.00
             311.99,305.07 295.48,336.01 287.82,343.90
             280.69,351.24 269.76,353.87 260.00,355.27
             240.91,358.00 221.26,356.97 202.00,357.00
             187.73,357.02 186.28,359.85 174.00,364.80
             170.95,366.03 164.69,367.91 162.72,370.30
             161.03,372.36 160.04,377.30 159.29,380.00
             159.29,380.00 153.63,401.00 153.63,401.00
             153.63,401.00 135.29,470.00 135.29,470.00
             135.29,470.00 125.63,506.00 125.63,506.00
             124.86,509.01 122.05,518.41 122.77,520.94
             123.71,524.24 127.12,525.11 130.00,526.00
             135.27,527.61 142.57,529.23 146.94,532.64
             154.21,538.30 148.96,545.51 152.02,550.81
             154.34,554.83 160.26,555.58 163.61,558.64
             168.20,562.82 168.95,570.18 169.00,576.00
             169.00,576.00 122.00,562.19 122.00,562.19
             122.00,562.19 43.00,538.00 43.00,538.00
             44.76,530.88 49.40,526.08 57.00,526.00
             60.31,526.01 65.14,527.45 67.87,526.00
             73.72,522.78 70.84,513.68 82.00,513.04
             88.76,512.66 93.78,514.59 99.99,516.63
             102.49,517.66 105.20,518.97 107.24,516.63
             108.77,514.62 110.91,505.77 111.63,503.00
             111.63,503.00 119.15,475.00 119.15,475.00
             119.15,475.00 139.47,400.00 139.47,400.00
             141.75,391.03 146.26,378.77 147.00,370.00
             139.93,368.82 141.88,366.33 141.69,362.42
             141.69,362.42 140.62,356.99 140.62,356.99
             140.65,353.41 144.12,349.02 146.00,346.00
             146.00,346.00 141.00,346.00 141.00,346.00
             143.30,336.71 152.94,330.84 162.00,329.16
             162.00,329.16 174.00,329.16 174.00,329.16
             176.68,329.04 178.37,329.06 181.00,329.76
             187.91,331.59 189.94,335.00 194.00,335.61
             197.15,336.09 205.72,333.40 209.00,332.33
             224.29,327.35 236.63,322.00 244.68,307.00
             249.40,298.20 250.96,285.45 257.93,276.00
             262.56,269.72 267.63,267.32 272.96,261.96
             279.47,255.42 285.17,244.25 286.00,235.00
             279.33,237.07 277.01,245.80 272.68,251.00
             265.44,259.69 252.98,267.39 248.80,275.00
             242.81,285.91 241.37,303.98 232.00,312.00
             227.98,302.33 228.88,283.82 229.00,273.00
             229.00,273.00 229.91,263.00 229.91,263.00
             231.51,240.19 236.84,212.14 248.00,192.00 Z
           M 258.00,200.00
           C 265.45,203.21 271.29,208.38 278.00,201.00
             278.00,201.00 280.00,201.00 280.00,201.00
             286.57,208.27 291.96,203.89 299.00,200.00
             289.01,214.97 268.27,214.21 258.00,200.00 Z
           M 224.08,242.00
           C 225.75,246.42 224.60,249.51 224.08,254.00
             224.08,254.00 223.00,273.00 223.00,273.00
             223.00,273.00 223.00,293.00 223.00,293.00
             222.98,295.29 223.10,297.84 221.98,299.91
             220.51,302.60 216.56,304.99 214.00,306.66
             206.79,311.35 193.80,317.17 185.06,314.43
             180.08,312.87 181.19,309.06 182.00,305.00
             183.13,299.39 188.24,278.93 191.43,275.32
             191.43,275.32 200.00,267.96 200.00,267.96
             205.59,262.64 219.79,247.88 224.08,242.00 Z
           M 310.00,321.00
           C 315.87,328.38 322.43,345.70 325.34,355.00
             326.29,358.02 328.69,364.77 327.39,367.70
             326.15,370.49 319.86,371.40 317.00,372.44
             308.26,375.61 302.34,379.21 295.00,384.89
             273.75,401.31 259.04,431.07 259.00,458.00
             259.00,458.00 259.00,468.00 259.00,468.00
             259.03,486.39 266.28,508.63 274.44,525.00
             274.44,525.00 292.00,555.00 292.00,555.00
             285.62,553.28 273.17,547.38 267.00,544.24
             232.92,526.92 213.75,499.60 204.63,463.00
             202.39,454.02 200.01,442.19 200.00,433.00
             200.00,433.00 200.00,413.00 200.00,413.00
             200.05,402.73 203.50,387.68 207.05,378.00
             208.24,374.76 210.50,368.02 213.39,366.17
             216.32,364.30 227.99,365.04 232.00,365.00
             232.00,365.00 242.00,364.09 242.00,364.09
             258.31,362.95 279.47,360.55 291.70,348.56
             298.97,341.43 303.08,329.45 310.00,321.00 Z
           M 198.00,382.00
           C 195.36,396.48 192.83,411.26 193.00,426.00
             193.00,426.00 193.92,436.00 193.92,436.00
             195.99,461.91 203.71,488.14 218.08,510.00
             224.79,520.22 233.98,530.74 244.00,537.79
             250.52,542.39 260.39,546.11 261.44,555.00
             262.80,566.38 250.56,564.87 243.00,566.65
             227.29,570.37 220.80,577.61 215.00,579.35
             211.54,580.40 199.34,580.00 195.00,580.00
             195.00,580.00 179.00,580.00 179.00,580.00
             176.93,579.96 171.76,579.96 173.40,576.34
             174.39,574.15 179.80,571.82 182.00,570.78
             182.00,570.78 206.00,559.53 206.00,559.53
             208.95,557.70 214.35,553.87 214.26,550.00
             214.18,546.79 208.72,541.53 206.59,539.00
             199.86,531.01 194.53,524.10 189.28,515.00
             171.14,483.55 162.61,445.72 177.01,411.00
             180.69,402.12 189.30,386.15 198.00,382.00 Z
           M 49.00,546.00
           C 49.00,546.00 82.00,555.58 82.00,555.58
             82.00,555.58 159.00,579.00 159.00,579.00
             159.00,579.00 153.00,601.00 153.00,601.00
             153.00,601.00 81.00,580.58 81.00,580.58
             81.00,580.58 43.00,570.00 43.00,570.00
             43.00,570.00 49.00,546.00 49.00,546.00 Z" />
</svg>
