<?xml version="1.0" encoding="UTF-8" standalone="no"?>
<!DOCTYPE svg PUBLIC "-//W3C//DTD SVG 20010904//EN"
              "http://www.w3.org/TR/2001/REC-SVG-20010904/DTD/svg10.dtd">

<svg xmlns="http://www.w3.org/2000/svg"
     width="8.45833in" height="11.8333in"
     viewBox="0 0 609 852">
  <path id="Selection"
        fill="currentColor" stroke="currentColor" stroke-width="0"
        d="M 298.00,81.00
           C 295.27,60.32 298.83,39.14 311.43,22.01
             318.09,12.96 333.43,1.46 342.16,15.02
             346.20,21.30 346.08,33.64 346.00,41.00
             345.85,53.35 341.93,69.14 334.32,79.00
             325.63,90.26 312.95,91.80 314.32,109.00
             315.23,120.37 320.65,126.38 323.25,137.00
             327.94,156.11 319.98,175.25 305.00,187.54
             300.76,191.02 292.64,197.05 287.00,196.90
             283.57,196.81 280.52,194.96 281.79,191.09
             283.04,187.28 287.67,186.36 290.56,180.99
             295.63,171.56 289.60,157.96 278.00,158.29
             267.68,158.58 261.68,171.68 267.23,180.99
             270.12,185.83 274.14,187.15 275.42,190.30
             276.97,194.09 274.86,196.78 270.98,196.90
             264.49,197.10 256.76,190.88 252.00,186.92
             235.58,173.21 229.64,154.62 234.90,134.00
             238.49,119.90 246.76,116.14 241.72,99.00
             239.61,91.79 228.67,86.94 222.53,79.00
             214.83,69.05 211.15,50.45 211.00,38.00
             210.93,31.68 211.43,19.28 214.99,14.10
             221.69,4.36 235.36,9.99 241.70,17.04
             256.21,33.17 260.30,52.02 260.00,73.00
             259.95,76.06 259.84,77.05 259.00,80.00
             259.00,80.00 271.00,76.67 271.00,76.67
             280.20,74.72 289.86,76.50 298.00,81.00 Z
           M 226.14,16.64
           C 221.89,19.42 222.06,23.28 222.00,28.00
             221.83,43.11 222.05,58.65 230.27,72.00
             233.10,76.60 240.62,85.76 246.89,83.39
             251.59,81.61 251.95,74.23 252.00,70.00
             252.16,55.74 249.30,38.81 240.96,27.00
             237.48,22.08 232.71,15.89 226.14,16.64 Z
           M 328.00,16.54
           C 321.72,18.19 318.37,22.77 314.89,28.00
             308.17,38.10 304.87,57.88 305.00,70.00
             305.06,75.31 305.64,84.26 313.00,83.73
             319.08,83.29 324.06,76.88 326.83,72.00
             334.77,58.00 335.07,44.50 335.00,29.00
             334.97,23.21 335.05,17.36 328.00,16.54 Z
           M 182.00,232.00
           C 184.16,225.51 191.47,201.63 191.68,196.00
             192.17,189.33 187.94,181.40 191.68,174.02
             196.41,164.17 212.05,164.89 214.61,176.00
             216.97,186.28 210.74,190.19 206.36,198.00
             203.79,202.58 202.50,209.74 201.00,215.00
             201.00,215.00 183.53,282.00 183.53,282.00
             183.53,282.00 173.00,324.00 173.00,324.00
             173.00,324.00 157.00,325.00 157.00,325.00
             158.89,318.52 165.27,296.49 164.81,291.00
             164.81,291.00 162.43,279.00 162.43,279.00
             162.43,279.00 159.21,250.00 159.21,250.00
             158.98,247.68 158.88,243.09 159.21,241.00
             160.67,236.23 167.61,227.45 173.00,227.76
             175.94,227.92 179.57,230.44 182.00,232.00 Z
           M 248.00,191.00
           C 253.54,201.59 252.39,206.62 265.00,213.48
             282.92,223.23 306.13,211.54 308.00,191.00
             312.01,194.00 315.27,203.18 316.92,208.00
             316.92,208.00 322.90,236.00 322.90,236.00
             324.29,241.49 328.08,249.51 330.42,255.00
             330.42,255.00 349.78,299.00 349.78,299.00
             359.77,320.15 370.41,341.06 375.77,364.00
             382.37,392.29 379.95,432.13 380.00,462.00
             380.01,466.63 379.95,468.41 381.16,473.00
             386.37,492.78 401.50,497.13 419.00,501.63
             457.98,511.65 498.44,516.05 536.00,531.20
             554.77,538.77 579.99,552.42 578.96,576.00
             578.07,596.35 552.98,599.81 537.00,600.00
             537.00,600.00 518.00,601.00 518.00,601.00
             518.00,601.00 490.00,601.00 490.00,601.00
             490.00,601.00 475.00,600.00 475.00,600.00
             475.00,600.00 423.00,602.00 423.00,602.00
             423.00,602.00 408.00,603.00 408.00,603.00
             408.00,603.00 367.00,603.00 367.00,603.00
             361.85,603.00 351.38,603.74 347.00,602.00
             347.00,602.00 407.00,592.42 407.00,592.42
             407.00,592.42 497.00,579.87 497.00,579.87
             497.00,579.87 532.00,573.79 532.00,573.79
             534.73,573.21 542.64,571.66 543.66,568.83
             544.49,566.55 541.61,565.46 539.98,564.94
             535.61,563.54 528.63,563.01 524.00,563.00
             524.00,563.00 505.00,562.09 505.00,562.09
             505.00,562.09 492.00,563.00 492.00,563.00
             492.00,563.00 430.00,563.00 430.00,563.00
             430.00,563.00 411.00,561.16 411.00,561.16
             383.34,558.20 367.83,552.96 342.00,544.00
             344.51,552.78 355.74,565.45 349.26,574.90
             345.08,581.00 335.60,580.97 329.00,581.00
             329.00,581.00 311.00,582.00 311.00,582.00
             311.00,582.00 294.00,581.00 294.00,581.00
             294.00,581.00 258.00,581.00 258.00,581.00
             250.38,581.00 233.48,581.84 227.00,580.00
             227.00,580.00 227.00,578.00 227.00,578.00
             236.49,573.39 251.41,571.35 262.00,569.87
             262.00,569.87 308.00,561.00 308.00,561.00
             296.07,546.46 289.15,539.25 280.26,522.00
             262.51,487.59 257.95,445.03 279.06,411.00
             284.56,402.14 289.86,396.48 298.00,390.00
             308.83,381.38 322.07,375.64 336.00,375.00
             335.42,362.42 329.28,344.55 324.14,333.00
             321.96,328.10 314.84,316.84 315.74,312.00
             315.74,312.00 323.57,295.00 323.57,295.00
             325.06,291.52 331.51,276.45 324.37,275.29
             322.55,275.00 321.69,276.65 321.30,278.12
             320.28,281.95 322.28,282.59 317.74,292.00
             311.91,304.09 296.31,334.04 287.82,342.91
             281.32,349.70 271.01,352.56 262.00,354.08
             244.23,357.07 220.48,355.97 202.00,356.00
             188.63,356.02 185.54,359.21 174.00,363.99
             170.90,365.28 164.70,366.91 162.72,369.30
             160.92,371.47 159.85,377.12 159.13,380.00
             159.13,380.00 153.53,401.00 153.53,401.00
             153.53,401.00 135.00,470.00 135.00,470.00
             135.00,470.00 125.13,507.00 125.13,507.00
             124.40,509.89 121.81,518.30 122.69,520.78
             123.69,523.61 127.43,524.42 130.00,525.12
             135.20,526.52 142.67,528.25 146.89,531.64
             153.96,537.30 149.13,544.73 152.02,549.89
             154.28,553.93 158.87,553.93 162.90,557.39
             168.26,562.01 168.94,568.40 169.00,575.00
             169.00,575.00 118.00,560.02 118.00,560.02
             118.00,560.02 43.00,537.00 43.00,537.00
             45.04,528.77 50.54,524.62 59.00,525.09
             62.38,525.28 65.76,526.65 68.78,524.40
             73.87,520.60 71.71,512.56 82.00,512.05
             88.63,511.71 93.86,514.15 100.00,515.98
             102.99,516.87 105.65,517.74 107.72,514.74
             109.25,512.52 111.08,504.05 111.88,501.00
             111.88,501.00 119.73,472.00 119.73,472.00
             119.73,472.00 133.53,422.00 133.53,422.00
             133.53,422.00 148.00,370.00 148.00,370.00
             141.59,367.90 140.02,366.60 143.00,360.00
             137.16,355.87 143.69,348.70 147.00,345.00
             147.00,345.00 141.00,345.00 141.00,345.00
             145.32,330.35 159.85,327.85 173.00,328.00
             175.98,328.04 178.08,328.13 181.00,328.93
             187.43,330.69 189.65,334.01 194.00,334.69
             197.55,335.24 204.38,332.90 208.00,331.86
             223.52,327.41 236.80,320.81 244.68,306.00
             249.74,296.49 251.35,283.58 258.76,274.04
             262.22,269.58 267.77,266.06 272.00,261.96
             278.87,255.30 285.52,243.72 286.00,234.00
             279.43,236.04 277.49,243.91 273.48,249.00
             263.73,261.40 251.71,265.30 246.06,280.00
             242.61,288.99 239.84,306.58 231.00,311.00
             231.00,311.00 229.00,291.00 229.00,291.00
             228.97,269.11 229.67,254.67 234.00,233.00
             236.62,219.88 241.54,202.65 248.00,191.00 Z
           M 258.00,199.00
           C 265.26,202.48 271.30,207.37 278.00,200.00
             278.00,200.00 280.00,200.00 280.00,200.00
             286.30,207.37 292.30,203.08 299.00,199.00
             290.51,214.43 268.01,212.84 258.00,199.00 Z
           M 224.08,242.00
           C 225.68,246.25 224.58,248.70 224.08,253.00
             224.08,253.00 223.00,272.00 223.00,272.00
             223.00,272.00 223.00,293.00 223.00,293.00
             222.96,295.04 222.99,297.05 221.98,298.91
             220.60,301.44 217.37,303.42 215.00,305.00
             208.05,309.62 200.52,313.62 192.00,313.96
             189.14,314.08 183.83,314.14 182.04,311.49
             180.27,308.88 182.62,301.97 183.37,299.00
             184.50,294.54 188.56,278.17 190.72,275.30
             192.19,273.35 195.02,271.39 196.99,269.87
             205.26,263.48 215.82,250.18 224.08,242.00 Z
           M 310.00,320.00
           C 317.52,329.46 327.73,356.72 328.00,369.00
             316.80,370.01 303.73,377.17 295.00,384.01
             260.34,411.17 251.97,457.36 264.04,498.00
             268.21,512.06 273.59,523.35 280.87,536.00
             280.87,536.00 292.00,554.00 292.00,554.00
             284.46,551.96 273.03,546.54 266.00,542.83
             256.83,538.00 249.81,533.86 242.00,526.83
             221.28,508.19 209.60,484.93 203.58,458.00
             201.67,449.48 200.01,440.76 200.00,432.00
             200.00,432.00 200.00,412.00 200.00,412.00
             200.13,401.40 203.42,386.92 207.19,377.00
             208.28,374.13 210.22,367.70 212.64,365.99
             215.72,363.81 229.76,364.05 234.00,364.00
             234.00,364.00 244.00,363.09 244.00,363.09
             259.75,361.94 280.03,359.18 291.82,347.70
             297.67,342.00 304.03,327.80 310.00,320.00 Z
           M 172.00,578.00
           C 174.03,572.68 178.03,571.59 183.00,569.42
             183.00,569.42 204.00,559.74 204.00,559.74
             207.51,557.88 214.36,553.49 214.26,549.00
             214.18,545.66 208.63,540.58 206.43,538.00
             198.76,529.03 193.96,522.16 188.01,512.00
             170.03,481.28 163.37,442.48 177.58,409.00
             181.30,400.23 189.33,385.14 198.00,381.00
             195.60,394.37 192.85,411.56 193.00,425.00
             193.00,425.00 193.92,435.00 193.92,435.00
             195.90,459.83 202.89,484.66 216.06,506.00
             222.48,516.39 232.09,528.45 242.00,535.57
             249.29,540.81 260.88,544.68 261.39,555.00
             261.94,566.27 251.35,562.80 239.00,566.75
             225.77,570.97 219.94,576.82 215.00,578.58
             209.12,580.68 195.76,580.00 189.00,580.00
             182.48,580.00 178.06,580.81 172.00,578.00 Z
           M 49.00,545.00
           C 49.00,545.00 77.00,553.28 77.00,553.28
             77.00,553.28 126.00,568.02 126.00,568.02
             126.00,568.02 159.00,578.00 159.00,578.00
             159.00,578.00 153.00,600.00 153.00,600.00
             153.00,600.00 122.00,591.42 122.00,591.42
             122.00,591.42 81.00,579.80 81.00,579.80
             81.00,579.80 43.00,569.00 43.00,569.00
             43.00,569.00 49.00,545.00 49.00,545.00 Z
           M 400.00,620.56
           C 402.65,620.09 404.27,619.90 407.00,620.04
             431.31,621.31 431.21,660.15 404.00,658.96
             383.70,658.07 377.90,628.28 400.00,620.56 Z
           M 483.00,620.43
           C 485.46,620.16 488.44,619.64 490.40,621.60
             492.17,623.36 492.10,627.55 492.42,630.00
             492.42,630.00 493.91,649.00 493.91,649.00
             494.07,650.95 494.65,655.10 493.91,656.69
             491.49,661.05 481.12,659.05 476.09,661.34
             471.36,663.50 474.25,666.36 479.00,666.97
             479.00,666.97 484.00,666.97 484.00,666.97
             484.00,666.97 491.00,666.97 491.00,666.97
             493.14,667.04 495.77,666.96 497.40,668.60
             499.32,670.52 498.99,674.46 498.95,677.00
             498.95,677.00 498.95,696.00 498.95,696.00
             498.95,696.00 498.95,700.98 498.95,700.98
             497.51,709.31 488.91,703.73 484.31,707.60
             481.62,709.87 482.01,713.82 482.00,717.00
             482.00,717.00 482.00,776.00 482.00,776.00
             481.98,784.63 480.63,785.98 472.00,786.00
             472.00,786.00 452.00,786.00 452.00,786.00
             449.65,785.98 446.39,786.19 444.60,784.40
             442.68,782.48 443.01,778.54 443.00,776.00
             443.00,776.00 443.00,717.00 443.00,717.00
             442.99,714.18 443.30,710.62 441.40,708.31
             439.27,705.71 436.05,706.22 434.60,702.86
             433.54,700.41 433.99,681.11 434.00,677.00
             434.00,674.48 433.62,669.73 435.74,667.99
             437.99,666.15 442.00,668.06 444.28,662.94
             445.13,661.01 445.82,653.43 449.43,645.00
             455.98,629.69 467.16,623.03 483.00,620.43 Z
           M 118.00,667.00
           C 118.00,667.00 114.72,693.00 114.72,693.00
             114.72,693.00 106.28,758.00 106.28,758.00
             106.28,758.00 103.95,777.00 103.95,777.00
             103.69,779.30 103.42,783.32 101.44,784.83
             99.57,786.25 95.32,786.00 93.00,786.00
             93.00,786.00 73.00,786.00 73.00,786.00
             70.80,786.00 67.17,786.21 65.31,784.98
             62.01,782.79 61.36,768.39 60.73,764.00
             60.73,764.00 51.72,693.00 51.72,693.00
             51.72,693.00 49.42,675.00 49.42,675.00
             49.17,673.37 48.90,669.91 47.46,668.91
             43.74,666.33 44.00,675.61 44.00,677.00
             44.00,677.00 44.00,760.00 44.00,760.00
             44.00,760.00 44.00,778.00 44.00,778.00
             43.96,780.14 44.04,782.77 42.40,784.40
             40.48,786.32 36.54,785.99 34.00,786.00
             34.00,786.00 13.00,786.00 13.00,786.00
             4.85,785.85 5.01,783.22 5.00,776.00
             5.00,776.00 5.00,663.00 5.00,663.00
             5.00,663.00 5.00,637.00 5.00,637.00
             5.00,635.01 4.77,631.19 6.02,629.60
             7.59,627.62 11.70,628.00 14.00,628.00
             14.00,628.00 64.00,628.00 64.00,628.00
             66.54,628.01 70.48,627.68 72.40,629.60
             74.66,631.85 73.87,637.87 74.09,641.00
             74.09,641.00 76.00,670.00 76.00,670.00
             76.00,670.00 76.91,680.00 76.91,680.00
             76.91,680.00 78.00,703.00 78.00,703.00
             78.00,703.00 80.00,735.00 80.00,735.00
             80.00,736.97 79.62,746.30 83.79,744.66
             85.52,743.99 85.80,741.57 85.94,740.00
             85.94,740.00 87.00,724.00 87.00,724.00
             87.00,724.00 88.91,695.00 88.91,695.00
             88.91,695.00 90.09,670.00 90.09,670.00
             90.09,670.00 91.00,660.00 91.00,660.00
             91.00,660.00 92.00,646.00 92.00,646.00
             92.00,646.00 92.00,637.00 92.00,637.00
             92.25,634.75 92.67,630.48 94.58,629.02
             96.23,627.76 99.96,628.00 102.00,628.00
             102.00,628.00 153.00,628.00 153.00,628.00
             161.13,628.06 160.98,629.27 161.00,637.00
             161.00,637.00 161.00,751.00 161.00,751.00
             161.00,751.00 161.00,777.00 161.00,777.00
             161.00,778.94 161.25,782.72 160.01,784.26
             158.30,786.38 153.50,786.00 151.00,786.00
             151.00,786.00 131.00,786.00 131.00,786.00
             128.64,785.96 125.54,786.06 123.74,784.26
             121.65,782.18 122.00,777.76 122.00,775.00
             122.00,775.00 122.00,694.00 122.00,694.00
             122.00,690.03 122.46,672.62 121.40,670.14
             120.53,668.10 119.72,667.97 118.00,667.00 Z
           M 209.00,667.44
           C 224.36,665.47 243.02,666.94 254.56,678.44
             270.55,694.36 271.23,729.19 266.58,750.00
             264.81,757.88 261.34,766.96 255.82,772.96
             247.02,782.53 231.67,786.45 219.00,785.96
             206.35,785.47 193.24,782.63 184.30,772.91
             174.56,762.33 171.07,743.03 171.00,729.00
             170.91,708.96 173.81,683.92 193.00,672.88
             198.28,669.84 203.09,668.54 209.00,667.44 Z
           M 318.00,770.00
           C 316.52,778.26 317.02,786.63 317.00,795.00
             317.00,796.99 317.23,800.81 315.98,802.40
             314.51,804.26 311.13,803.98 309.00,804.00
             309.00,804.00 286.00,804.00 286.00,804.00
             284.22,803.99 281.18,804.17 279.74,803.01
             277.62,801.30 278.00,796.50 278.00,794.00
             278.00,794.00 278.00,707.00 278.00,707.00
             278.00,707.00 278.00,676.00 278.00,676.00
             278.02,673.65 277.81,670.39 279.60,668.60
             281.52,666.68 285.46,667.01 288.00,667.00
             288.00,667.00 310.00,667.00 310.00,667.00
             311.95,667.04 314.63,666.90 315.98,668.60
             317.07,669.98 317.23,678.82 318.00,682.00
             327.19,674.84 328.34,666.61 345.00,667.01
             360.41,667.39 368.22,679.49 372.09,693.00
             378.19,714.29 378.08,750.15 367.74,770.00
             356.76,791.07 330.42,791.22 320.00,770.00
             320.00,770.00 318.00,770.00 318.00,770.00 Z
           M 387.60,668.02
           C 392.25,666.04 409.89,666.99 416.00,667.00
             417.94,667.00 421.72,666.75 423.26,667.99
             425.38,669.70 425.00,674.50 425.00,677.00
             425.00,677.00 425.00,758.00 425.00,758.00
             425.00,758.00 425.00,778.00 425.00,778.00
             424.96,780.13 425.05,782.65 423.40,784.26
             421.29,786.32 416.77,786.00 414.00,786.00
             414.00,786.00 394.00,786.00 394.00,786.00
             391.86,785.96 389.23,786.04 387.60,784.40
             385.68,782.48 386.01,778.54 386.00,776.00
             386.00,776.00 386.00,761.00 386.00,761.00
             386.00,761.00 386.00,694.00 386.00,694.00
             386.00,688.21 384.64,672.15 387.60,668.02 Z
           M 562.00,770.00
           C 558.20,774.13 554.78,778.97 550.00,782.03
             535.81,791.12 520.08,783.91 512.64,770.00
             502.72,751.45 504.00,719.96 504.00,699.00
             504.00,699.00 504.00,677.00 504.00,677.00
             504.03,674.46 504.01,670.56 505.85,668.60
             507.70,666.64 511.50,667.00 514.00,667.00
             514.00,667.00 536.00,667.00 536.00,667.00
             538.14,667.04 540.77,666.96 542.40,668.60
             544.32,670.52 543.99,674.46 544.00,677.00
             544.00,677.00 544.00,727.00 544.00,727.00
             544.01,732.69 545.55,746.61 554.00,745.68
             561.90,744.81 562.99,731.95 563.00,726.00
             563.00,726.00 563.00,675.00 563.00,675.00
             563.11,666.89 564.52,667.01 572.00,667.00
             572.00,667.00 594.00,667.00 594.00,667.00
             595.82,667.01 598.92,666.85 600.40,668.02
             602.38,669.59 602.00,673.70 602.00,676.00
             602.00,676.00 602.00,787.00 602.00,787.00
             602.00,787.00 601.09,799.00 601.09,799.00
             599.54,820.22 593.57,838.07 571.00,844.96
             565.39,846.68 561.79,846.99 556.00,847.00
             539.81,847.03 525.49,845.49 515.21,831.00
             513.46,828.53 509.41,822.16 509.98,819.11
             510.57,815.87 515.28,814.44 518.00,813.52
             518.00,813.52 545.00,805.31 545.00,805.31
             549.38,805.33 552.28,808.80 555.89,807.50
             559.36,806.25 560.64,801.22 561.33,798.00
             562.98,790.37 563.84,777.55 562.00,770.00 Z
           M 218.04,706.45
           C 208.38,710.52 209.54,728.33 211.31,737.00
             212.35,742.09 215.95,747.60 221.98,745.94
             226.54,744.68 228.07,740.11 228.98,736.00
             230.98,727.00 231.74,705.09 218.04,706.45 Z
           M 325.02,706.62
           C 315.77,711.72 316.54,727.03 318.45,736.00
             319.52,740.99 322.46,748.05 328.96,746.02
             332.74,744.83 334.69,740.52 335.70,737.00
             338.13,728.52 338.45,704.77 325.02,706.62 Z
           M 15.00,816.65
           C 19.78,815.66 29.39,815.16 31.34,821.08
             31.99,823.06 31.26,825.29 28.85,825.13
             26.97,825.00 24.45,822.88 22.00,822.53
             16.65,821.77 11.63,827.88 12.66,833.00
             13.57,837.54 18.25,841.54 23.00,840.24
             25.10,839.66 27.68,837.50 29.84,837.90
             34.80,838.81 30.35,844.55 27.96,845.83
             25.83,846.96 23.35,846.99 21.00,846.99
             1.63,847.02 -0.19,823.08 15.00,816.65 Z
           M 60.00,841.00
           C 59.85,842.77 59.96,844.74 58.40,845.98
             56.04,847.84 42.74,847.54 40.60,845.40
             38.68,843.48 39.01,839.54 39.07,837.00
             39.07,837.00 39.07,820.06 39.07,820.06
             39.57,817.52 41.69,815.05 44.27,817.01
             46.24,818.52 45.99,822.75 46.00,825.00
             46.00,825.00 46.00,841.00 46.00,841.00
             46.00,841.00 60.00,841.00 60.00,841.00 Z
           M 73.00,841.00
           C 76.11,841.00 87.18,840.17 88.93,842.56
             90.32,844.45 88.63,846.00 86.87,846.79
             84.99,847.17 78.33,847.00 76.00,846.79
             73.46,846.99 69.52,847.32 67.60,845.40
             65.04,842.84 65.93,828.10 66.00,824.00
             66.04,821.86 65.96,819.23 67.60,817.60
             69.52,815.68 73.46,816.01 76.00,816.00
             78.01,816.00 91.98,815.05 88.83,820.42
             87.76,822.24 83.82,821.99 82.00,822.00
             82.00,822.00 73.00,822.00 73.00,822.00
             73.71,830.72 78.86,829.00 86.00,829.00
             84.79,835.89 78.87,834.00 73.00,834.00
             73.00,834.00 73.00,841.00 73.00,841.00 Z
           M 106.41,817.02
           C 108.14,816.37 108.89,815.86 110.90,816.33
             115.63,817.45 119.44,831.50 121.20,836.00
             122.09,838.26 125.04,844.06 122.39,845.92
             118.94,848.35 116.30,842.10 114.51,840.60
             112.77,839.14 110.21,838.84 108.02,839.15
             101.83,840.03 101.92,847.68 97.31,846.26
             94.39,845.36 96.05,840.91 96.70,839.00
             98.42,833.91 103.07,820.41 106.41,817.02 Z
           M 136.00,828.00
           C 136.00,828.00 136.00,840.00 136.00,840.00
             135.96,842.13 134.69,849.88 131.02,845.38
             129.86,843.96 130.01,840.77 130.16,839.00
             130.16,839.00 130.16,819.15 130.16,819.15
             131.88,813.88 136.83,817.52 138.99,820.11
             138.99,820.11 143.37,826.00 143.37,826.00
             143.37,826.00 150.00,835.00 150.00,835.00
             150.00,835.00 150.00,824.00 150.00,824.00
             150.17,814.88 154.93,815.71 156.26,818.30
             157.44,820.58 157.02,834.55 157.00,838.00
             156.99,840.61 157.41,846.15 153.79,846.56
             150.89,846.89 148.81,843.98 147.29,841.98
             143.48,836.95 140.93,832.11 136.00,828.00 Z
           M 167.30,817.08
           C 172.06,815.97 171.92,819.13 172.00,823.00
             172.00,823.00 172.00,839.00 172.00,839.00
             171.98,841.69 172.02,848.23 167.30,846.34
             164.49,845.23 165.00,840.46 165.00,838.00
             164.99,832.36 163.41,821.15 167.30,817.08 Z
           M 187.00,827.00
           C 187.00,827.00 187.00,840.00 187.00,840.00
             186.82,849.48 181.75,846.49 180.60,843.85
             179.64,841.66 179.98,828.29 180.00,825.00
             180.02,822.08 179.79,816.63 184.05,816.63
             186.69,816.63 188.76,819.15 190.25,821.02
             190.25,821.02 201.00,835.00 201.00,835.00
             201.00,835.00 201.00,823.00 201.00,823.00
             201.17,814.21 206.83,814.21 207.00,823.00
             207.00,823.00 207.77,841.98 207.77,841.98
             206.42,849.62 201.02,845.85 197.89,841.98
             197.89,841.98 193.42,836.00 193.42,836.00
             193.42,836.00 187.00,827.00 187.00,827.00 Z
           M 239.00,844.00
           C 233.44,846.80 226.83,848.71 221.02,845.15
             211.83,839.51 212.37,824.54 220.10,818.85
             224.21,815.83 232.29,815.02 236.98,817.01
             239.20,817.95 242.03,820.05 241.26,822.60
             240.03,827.29 234.81,822.82 232.00,822.60
             225.85,821.32 220.06,828.08 222.30,835.00
             225.42,844.62 232.87,842.38 238.00,836.00
             238.00,836.00 229.00,834.00 229.00,834.00
             229.49,832.79 229.54,831.90 230.72,830.99
             232.76,829.42 241.30,829.47 242.98,831.60
             244.56,833.60 244.00,844.00 244.00,847.00
             244.00,847.00 239.00,844.00 239.00,844.00 Z
           M 267.02,816.96
           C 270.61,815.86 276.58,815.32 279.94,816.96
             281.65,818.12 284.01,820.43 282.83,822.67
             280.76,826.37 274.67,819.28 270.37,822.67
             269.73,823.28 269.20,824.02 269.20,824.88
             269.20,828.66 277.66,828.03 281.58,831.65
             285.86,835.59 285.02,842.90 279.89,845.69
             277.28,847.11 272.95,847.07 270.00,846.98
             266.76,846.89 260.46,845.73 261.03,841.15
             261.31,838.87 263.34,838.99 265.02,839.34
             267.66,840.22 274.76,844.01 276.45,839.34
             277.44,836.41 272.84,834.96 271.00,834.39
             264.55,832.40 257.46,827.72 262.74,820.11
             264.13,818.10 265.03,817.83 267.02,816.96 Z
           M 298.00,841.00
           C 300.73,841.00 310.78,840.66 312.68,841.60
             314.93,842.71 314.93,845.29 312.68,846.40
             311.22,847.13 307.70,847.00 306.00,847.00
             302.75,847.01 294.88,847.68 292.60,845.40
             290.68,843.48 291.01,839.54 291.00,837.00
             290.99,833.02 290.02,820.17 292.60,817.60
             294.39,815.81 297.65,816.02 300.00,816.22
             302.42,815.98 309.98,815.82 311.87,816.22
             313.63,817.00 315.32,818.55 313.93,820.44
             312.18,822.83 301.11,822.00 298.00,822.00
             298.71,830.72 303.86,829.00 311.00,829.00
             309.79,835.89 303.87,834.00 298.00,834.00
             298.00,834.00 298.00,841.00 298.00,841.00 Z
           M 328.00,836.00
           C 328.00,838.33 328.83,849.20 323.41,845.92
             319.89,843.79 320.99,831.90 321.00,828.00
             321.00,825.34 320.80,820.67 322.29,818.43
             324.20,815.55 328.93,815.94 332.00,816.01
             335.73,816.10 340.82,816.63 343.57,819.43
             348.12,824.05 346.26,831.81 339.00,834.00
             339.00,834.00 346.00,846.00 346.00,846.00
             335.15,848.37 338.30,840.91 328.00,836.00 Z
           M 379.00,817.11
           C 378.19,822.16 377.10,824.26 375.20,829.00
             375.20,829.00 371.15,839.00 371.15,839.00
             371.15,839.00 369.32,842.94 369.32,842.94
             366.94,847.08 363.34,848.17 360.36,843.85
             360.36,843.85 352.58,826.00 352.58,826.00
             351.87,823.65 349.39,818.89 352.58,817.08
             354.99,815.47 357.11,817.95 358.21,820.06
             358.21,820.06 365.00,838.00 365.00,838.00
             366.01,834.16 370.49,818.97 373.42,817.11
             375.30,816.08 377.03,816.63 379.00,817.11 Z
           M 386.58,817.08
           C 390.48,816.08 391.49,818.40 391.94,822.00
             391.94,822.00 391.94,839.00 391.94,839.00
             391.82,848.44 386.79,847.06 385.60,844.68
             384.87,843.23 385.00,839.69 385.00,838.00
             384.99,832.91 383.81,820.86 386.58,817.08 Z
           M 409.00,816.56
           C 413.38,815.79 418.99,815.31 422.77,818.15
             424.49,819.43 426.54,822.38 424.36,824.27
             422.16,826.18 418.76,823.33 416.00,822.69
             409.82,821.26 405.37,827.23 406.24,833.00
             406.95,837.68 411.14,841.47 416.00,840.53
             418.87,839.98 421.54,837.46 423.68,837.90
             426.28,838.42 426.37,843.03 421.89,845.55
             419.75,846.75 417.39,846.93 415.00,846.98
             410.35,847.10 406.92,846.79 403.33,843.47
             396.71,837.36 396.13,821.09 409.00,816.56 Z
           M 439.00,822.00
           C 439.71,830.64 443.11,828.15 448.89,829.13
             450.48,829.40 452.78,830.43 451.60,832.48
             450.04,835.19 437.16,832.55 440.17,838.70
             442.04,842.55 450.49,840.02 453.68,841.60
             456.02,842.75 456.74,846.42 450.98,846.97
             450.98,846.97 447.00,846.97 447.00,846.97
             443.28,847.01 435.46,847.89 433.17,844.57
             431.86,842.65 432.01,839.26 432.00,837.00
             431.91,818.92 430.85,816.14 441.00,816.00
             443.43,815.97 451.91,815.72 453.68,816.60
             455.93,817.71 455.93,820.29 453.68,821.40
             452.22,822.13 448.70,822.00 447.00,822.00
             447.00,822.00 439.00,822.00 439.00,822.00 Z
           M 482.00,825.00
           C 479.68,823.42 477.01,821.47 474.02,821.76
             471.41,822.01 469.11,824.19 470.74,826.29
             473.13,829.35 487.52,828.79 485.19,840.00
             484.90,841.36 484.35,842.65 483.44,843.72
             480.29,847.45 471.36,847.71 467.02,846.43
             464.77,845.77 461.69,843.91 462.03,841.35
             462.63,836.30 469.54,841.66 472.98,841.35
             475.24,841.50 478.10,839.87 476.83,837.26
             475.20,833.88 468.35,834.77 464.43,830.61
             460.14,826.05 461.03,815.19 476.00,816.04
             481.48,816.36 487.13,819.54 482.00,825.00 Z
           M 328.00,831.00
           C 330.47,830.99 334.60,831.22 336.69,829.83
             339.61,827.86 339.02,823.98 335.85,822.60
             334.11,821.84 330.02,822.00 328.00,822.00
             328.00,822.00 328.00,831.00 328.00,831.00 Z
           M 110.00,824.00
           C 107.10,827.36 106.67,829.70 106.00,834.00
             106.00,834.00 113.00,834.00 113.00,834.00
             113.00,834.00 110.00,824.00 110.00,824.00 Z" />
</svg>
